<?xml version="1.0" encoding="UTF-8" standalone="no"?>
<svg
   viewBox="0 0 45.29 65.06"
   version="1.1"
   id="svg21"
   sodipodi:docname="type-hdpe.svg"
   inkscape:version="1.2.1 (9c6d41e410, 2022-07-14)"
   xmlns:inkscape="http://www.inkscape.org/namespaces/inkscape"
   xmlns:sodipodi="http://sodipodi.sourceforge.net/DTD/sodipodi-0.dtd"
   xmlns="http://www.w3.org/2000/svg"
   xmlns:svg="http://www.w3.org/2000/svg"
   xmlns:rdf="http://www.w3.org/1999/02/22-rdf-syntax-ns#"
   xmlns:cc="http://creativecommons.org/ns#"
   xmlns:dc="http://purl.org/dc/elements/1.1/">
  <defs
     id="defs25" />
  <sodipodi:namedview
     id="namedview23"
     pagecolor="#ffffff"
     bordercolor="#000000"
     borderopacity="0.25"
     inkscape:showpageshadow="2"
     inkscape:pageopacity="0.0"
     inkscape:pagecheckerboard="0"
     inkscape:deskcolor="#d1d1d1"
     showgrid="false"
     inkscape:zoom="8.0694746"
     inkscape:cx="22.616094"
     inkscape:cy="32.468037"
     inkscape:window-width="1366"
     inkscape:window-height="705"
     inkscape:window-x="-8"
     inkscape:window-y="-8"
     inkscape:window-maximized="1"
     inkscape:current-layer="svg21" />
  <title
     id="title2">icon plastic type hdpe</title>
  <path
     d="m 25.79,32.65 a 12.14,12.14 0 0 0 -3.26,-0.27 c -0.59,0 -2,0 -2.69,-0.08 a 55,55 0 0 0 3.27,-5.2 35,35 0 0 0 2.82,-4.74 9.25,9.25 0 0 0 0.36,-2.44 v -0.39 c 0,-1.9 -0.74,-3.17 -2.2,-3.75 a 3.7,3.7 0 0 0 -1.52,-0.25 4.41,4.41 0 0 0 -2.4,0.55 v 0 a 0.89,0.89 0 0 0 -0.37,0.6 c 0,0.22 0.1,0.57 0.83,0.57 a 1.78,1.78 0 0 0 0.7,-0.14 1.33,1.33 0 0 1 0.43,-0.11 0.45,0.45 0 0 0 0.36,-0.13 h 0.15 a 4.72,4.72 0 0 1 1,0.12 1.41,1.41 0 0 1 1,0.66 3.78,3.78 0 0 1 0.4,2 A 8.69,8.69 0 0 1 24.3,22 42.67,42.67 0 0 1 21,27.5 c -3.46,5.15 -3.46,5.25 -3.46,5.39 a 0.81,0.81 0 0 0 0.64,0.84 c 0.23,0.07 1.47,0.11 4,0.17 h 1 1.94 a 1.63,1.63 0 0 0 0.79,-0.1 c 0.11,-0.07 0.47,-0.28 0.45,-0.61 -0.02,-0.33 -0.42,-0.47 -0.57,-0.54 z"
     style="fill:#1d1d1b;stroke:#1d1d1b;stroke-width:0.25px;stroke-miterlimit:10"
     id="path4" />
  <path
     d="M 13.11,40.17 A 55.37,55.37 0 0 1 6.54,39.86 C 5.4,39.73 4.26,39.55 3.13,39.34 c -0.77,-0.15 -1,0 -0.78,-0.81 a 12.51,12.51 0 0 1 0.49,-1.46 95.89,95.89 0 0 1 4.78,-9.84 11.78,11.78 0 0 0 1.87,0.53 0.64,0.64 0 0 0 0.79,-0.6 39.37,39.37 0 0 0 -0.11,-4.61 C 10.11,21.74 10.1,20.44 9.17,20.08 8.24,19.72 7.77,20.61 7.33,21.2 7.09,21.5 6.87,21.81 6.64,22.12 6.41,22.43 5.87,23 5.5,23.43 a 4.86,4.86 0 0 0 -0.91,1.33 0.71,0.71 0 0 0 -0.07,0.68 1.77,1.77 0 0 0 0.59,0.51 l 0.51,0.33 C 4.71,28 3.82,29.72 3,31.47 c -1.13,2.28 -2.6,4.75 -3,7.29 -0.4,2.75 2.56,2.79 4.58,3.08 a 53.51,53.51 0 0 0 8.49,0.56 1.12,1.12 0 0 0 0.04,-2.23 z"
     style="fill:#1d1d1b"
     id="path6" />
  <path
     d="m 44.3,35 c -1,-2.47 -2,-4.92 -3,-7.38 -0.54,-1.31 -2.7,-0.74 -2.16,0.6 l 2.3,5.67 c 0.36,0.9 0.75,1.79 1.07,2.7 0.16,0.46 0.84,2.13 0.38,2.56 a 4.72,4.72 0 0 1 -1.23,0.25 l -1.43,0.25 c -1.17,0.18 -2.35,0.32 -3.53,0.41 a 51.57,51.57 0 0 1 -5.83,0.12 c -0.06,-0.79 0,-1.92 -0.72,-2.45 -0.72,-0.53 -1.57,-0.08 -2.26,0.29 a 40.89,40.89 0 0 0 -3.82,2.41 c -0.12,0.08 -1.31,0.67 -0.43,1.69 a 20.92,20.92 0 0 0 2.41,1.27 14.52,14.52 0 0 0 3.73,1.48 1.08,1.08 0 0 0 1.26,-0.89 6.66,6.66 0 0 0 0.05,-1.56 50.74,50.74 0 0 0 7.29,-0.29 C 39.6,42 40.81,41.82 42.02,41.6 a 4.39,4.39 0 0 0 2.67,-1 C 46,39.09 44.89,36.46 44.3,35 Z"
     style="fill:#1d1d1b"
     id="path8" />
  <path
     d="m 37.23,17.62 a 12.4,12.4 0 0 0 -1.12,-3.84 0.93,0.93 0 0 0 -1.46,-0.27 c -0.13,0.08 -0.25,0.19 -0.38,0.29 a 1.29,1.29 0 0 0 -0.4,0.08 C 32.26,10.94 30.57,8.05 28.75,5.23 27.29,3 25.38,-1.5 22,0.51 19.82,1.82 18.29,4.51 16.95,6.61 15.44,9 14,11.48 12.64,14 c -0.7,1.26 1.23,2.39 1.93,1.13 2.21,-4 4.42,-8.3 7.5,-11.68 0.35,-0.39 0.93,-1.08 1.48,-1.18 0.74,-0.12 1.25,1.08 1.59,1.59 q 1.32,1.94 2.56,3.91 c 1.52,2.42 2.94,4.88 4.32,7.38 A 3.15,3.15 0 0 0 31,17 c -0.26,0.8 0.47,1.35 1.07,1.81 0.91,0.7 4.15,3.23 5.26,1.74 0.58,-0.71 0.07,-2.14 -0.1,-2.93 z"
     style="fill:#1d1d1b"
     id="path10" />
  <path
     d="m 28.80478,49.030381 a 0.67,0.67 0 0 0 -0.93,-0.17 v 0 a 1,1 0 0 0 -0.31,0.87 c 0,0.16 0,0.81 0.12,1.92 0.1,1.49 0.15,2.46 0.15,2.88 v 0.57 h -3.38 v -2.52 c 0,-2.93 -0.08,-3.11 -0.14,-3.25 a 0.67,0.67 0 0 0 -0.61,-0.4 0.72,0.72 0 0 0 -0.7,0.53 c 0,0.11 -0.08,0.19 -0.08,7.12 v 7 l 0.11,0.11 a 1,1 0 0 0 0.71,0.34 0.72,0.72 0 0 0 0.51,-0.31 c 0.07,-0.13 0.12,-0.21 0.17,-3.84 v -3.1 h 3.57 c 0,0.14 0,0.35 0,0.62 0,0.63 0.06,1.65 0.1,3.06 0.04,1.41 0.07,2.49 0.13,2.89 a 1.3,1.3 0 0 0 0.52,1 0.69,0.69 0 0 0 0.37,0.12 0.48,0.48 0 0 0 0.18,0 0.68,0.68 0 0 0 0.4,-0.42 v -0.1 a 2.19,2.19 0 0 0 0,-0.36 c 0,-0.64 -0.16,-3.87 -0.5,-9.85 -0.15,-4.36 -0.26,-4.55 -0.39,-4.71 z"
     style="fill:#1d1d1b"
     id="path12" />
  <path
     d="m 37.15478,50.510381 a 7.27,7.27 0 0 0 -0.82,-0.92 5.7,5.7 0 0 0 -1,-0.81 5.24,5.24 0 0 0 -2.62,-0.8 2.1,2.1 0 0 0 -0.57,0.06 0.72,0.72 0 0 0 -0.54,0.44 2.4,2.4 0 0 0 -0.09,0.8 c 0,0.64 0,1.84 0.12,3.66 0.12,1.82 0.12,2.92 0.13,3.34 a 51,51 0 0 0 0.38,7.1 c 0.07,0.29 0.33,0.65 1.11,0.68 h 0.17 a 5.15,5.15 0 0 0 5.17,-4.68 12.75,12.75 0 0 0 0.11,-2.1 20.34,20.34 0 0 0 -0.11,-2.52 10.17,10.17 0 0 0 -1.44,-4.25 z m -0.16,8.87 a 3.6,3.6 0 0 1 -3,3 2.27,2.27 0 0 1 -0.51,0.06 42.81,42.81 0 0 1 -0.26,-4.47 c 0,-0.15 0,-0.93 0,-2.33 0,-1.4 -0.07,-2.62 -0.1,-3.66 -0.03,-1.04 -0.09,-1.78 -0.15,-2.21 0,-0.13 0,-0.22 0,-0.3 a 2.77,2.77 0 0 1 0.57,0.13 v 0 a 4.08,4.08 0 0 1 2,1.3 8.5,8.5 0 0 1 1.56,4.76 c 0,0.56 0.05,1 0.05,1.45 a 9.87,9.87 0 0 1 -0.16,2.27 z"
     style="fill:#1d1d1b"
     id="path14" />
  <path
     d="m 11.758515,48.888228 a 4.76,4.76 0 0 0 -2.4800002,-1 h -0.16 a 0.88,0.88 0 0 0 -0.72,0.75 3.13,3.13 0 0 0 0,0.75 c 0,0.87 0,2.07 0.1,3.56 0,0.88 0.06,2.75 0.1,5.56 0.05,4.56 0.09,4.77 0.11,4.87 a 1,1 0 0 0 0.22,0.52 0.77,0.77 0 0 0 0.52,0.24 1.1,1.1 0 0 0 0.7400002,-0.36 l 0.11,-0.12 -0.05,-2.85 v -1.43 c 0,-1 0.05,-1.22 0,-1.21 a 2.05,2.05 0 0 1 0.54,-0.41 c 0.35,-0.24 0.73,-0.51 1.1,-0.82 a 6.43,6.43 0 0 0 1.39,-1.49 4.33,4.33 0 0 0 0.62,-1.62 3.77,3.77 0 0 0 0.06,-0.78 5.07,5.07 0 0 0 -0.58,-2.35 4.73,4.73 0 0 0 -1.62,-1.81 z m 0.57,4.26 a 3,3 0 0 1 -0.06,0.64 3.82,3.82 0 0 1 -1.35,2 c -0.27,0.22 -0.52,0.4 -0.72,0.54 0,-0.46 -0.07,-1.3 -0.14,-2.84 q 0,-0.6 -0.06,-1.8 c 0,-0.81 -0.05,-1.31 -0.07,-1.47 v -0.59 h 0.1500002 a 3.55,3.55 0 0 1 2.1,2.24 4,4 0 0 1 0.15,1.28 z"
     style="fill:#1d1d1b"
     id="path16" />
  <path
     d="m 19.528515,62.758228 a 8.08,8.08 0 0 0 -1.21,-0.13 h -0.87 a 12.36,12.36 0 0 1 -0.09,-1.24 c -0.05,-1 -0.08,-1.84 -0.08,-2.63 a 8.2,8.2 0 0 1 0,-0.86 v -0.27 c 0.35,0 0.84,-0.11 1,-0.44 a 0.69,0.69 0 0 0 0.12,-0.41 c 0,-0.28 -0.15,-0.75 -1.15,-0.75 v 0 0 c 0,-0.08 0,-0.6 -0.07,-3.23 v -2.6 h 0.09 a 9.3,9.3 0 0 1 1,-0.05 c 1.38,0 1.68,-0.11 1.81,-0.34 a 0.68,0.68 0 0 0 -0.07,-1 c -0.21,-0.18 -0.45,-0.18 -1.23,-0.18 -0.42,0 -0.79,0 -1.11,0 h -0.36 -0.41 a 3.77,3.77 0 0 0 -0.57,0 l -0.14,0.05 a 0.63,0.63 0 0 0 -0.26,0.12 0.91,0.91 0 0 0 -0.19,0.2 v 0.09 a 9.81,9.81 0 0 0 -0.07,2.12 c 0,2.09 0,4.64 0.09,7.57 0.08,4.51 0.16,4.68 0.21,4.8 a 0.77,0.77 0 0 0 0.61,0.51 10.87,10.87 0 0 0 1.5,0 v 0 h 1.67 l 0.11,-0.19 c 0.2,-0.35 0.26,-0.54 0.21,-0.73 a 0.7,0.7 0 0 0 -0.54,-0.41 z"
     style="fill:#1d1d1b"
     id="path18" />
  <metadata
     id="metadata193">
    <rdf:RDF>
      <cc:Work
         rdf:about="">
        <dc:title>icon plastic type hdpe</dc:title>
      </cc:Work>
    </rdf:RDF>
  </metadata>
</svg>
