<?xml version="1.0" encoding="UTF-8" standalone="no"?>
<svg
   viewBox="0 0 47.27 64.67"
   version="1.1"
   id="svg21"
   sodipodi:docname="type-ldpe.svg"
   inkscape:version="1.2.1 (9c6d41e410, 2022-07-14)"
   xmlns:inkscape="http://www.inkscape.org/namespaces/inkscape"
   xmlns:sodipodi="http://sodipodi.sourceforge.net/DTD/sodipodi-0.dtd"
   xmlns="http://www.w3.org/2000/svg"
   xmlns:svg="http://www.w3.org/2000/svg"
   xmlns:rdf="http://www.w3.org/1999/02/22-rdf-syntax-ns#"
   xmlns:cc="http://creativecommons.org/ns#"
   xmlns:dc="http://purl.org/dc/elements/1.1/">
  <defs
     id="defs25" />
  <sodipodi:namedview
     id="namedview23"
     pagecolor="#ffffff"
     bordercolor="#000000"
     borderopacity="0.25"
     inkscape:showpageshadow="2"
     inkscape:pageopacity="0.0"
     inkscape:pagecheckerboard="0"
     inkscape:deskcolor="#d1d1d1"
     showgrid="false"
     inkscape:zoom="8.1181385"
     inkscape:cx="38.98677"
     inkscape:cy="32.39659"
     inkscape:window-width="1366"
     inkscape:window-height="705"
     inkscape:window-x="-8"
     inkscape:window-y="-8"
     inkscape:window-maximized="1"
     inkscape:current-layer="svg21" />
  <title
     id="title2">icon plastic type ldpe</title>
  <path
     d="m 13.66,40.83 a 40.65,40.65 0 0 1 -6.8,-0.29 c -1.67,-0.19 -5.28,0 -4.5,-2.66 A 14.16,14.16 0 0 1 3.88,35.07 C 4.43,34.15 4.96,33.22 5.47,32.29 6.33,30.72 7.13,29.12 7.9,27.52 a 3.16,3.16 0 0 0 1.93,0.16 c 0.84,-0.29 0.9,-1 0.95,-1.81 0.1,-1.34 0.28,-2.73 0.26,-4.07 a 1.59,1.59 0 0 0 -0.42,-1.17 0.52,0.52 0 0 0 -0.39,-0.37 c -1,-0.28 -1.78,0.55 -2.51,1.1 a 21,21 0 0 0 -2.67,2.31 c -0.48,0.51 -1.16,1.21 -0.79,2 a 2.82,2.82 0 0 0 1.53,1.1 c -1,2 -1.95,3.91 -3,5.81 -1.05,1.9 -3.13,4.31 -2.7,6.8 0.43,2.49 2.6,2.89 4.63,3.15 a 49,49 0 0 0 9,0.56 C 15.09,43 15.1,40.75 13.66,40.83 Z"
     style="fill:#1d1d1b"
     id="path4" />
  <path
     d="M 35.34,15.41 A 6.93,6.93 0 0 0 35.1,13.49 0.65,0.65 0 0 0 35.04,13.19 C 34.54,12.13 33.59,12.55 32.78,13 a 49.68,49.68 0 0 0 -3.3,-6.71 c -1.2,-2 -2.7,-5.12 -5,-6 -2.53,-1 -4.18,1.41 -5.45,3.21 -1.85,2.5 -3.33,5.3 -4.89,8.02 a 1.12,1.12 0 0 0 1.93,1.13 c 1.22,-2.13 2.4,-4.28 3.71,-6.36 A 29.09,29.09 0 0 1 21.7,3.52 c 0.76,-1 1.42,-1.73 2.56,-0.78 C 25.85,4.06 27,6.42 28,8.2 a 48.89,48.89 0 0 1 2.83,5.88 3.87,3.87 0 0 0 -1.55,1.47 c -0.53,1.11 0.62,1.92 1.35,2.55 a 21.1,21.1 0 0 0 1.85,1.42 3.72,3.72 0 0 0 1.63,0.88 c 1.16,0.07 1.28,-1.59 1.32,-2.4 a 22.34,22.34 0 0 0 -0.09,-2.59 z"
     style="fill:#1d1d1b"
     id="path6" />
  <path
     d="m 45.87,34.45 a 54.55,54.55 0 0 0 -3.79,-7.27 1.12,1.12 0 0 0 -1.93,1.13 62.66,62.66 0 0 1 3.16,5.8 24.53,24.53 0 0 1 1.14,3 c 0.21,0.7 0.93,2.46 0.34,3.06 -0.59,0.6 -2.18,0.39 -2.8,0.44 -1.13,0.08 -2.26,0.16 -3.39,0.22 a 66.13,66.13 0 0 1 -7,0 2.84,2.84 0 0 0 -0.67,-2.43 c -0.9,-0.69 -2.42,0.34 -3.28,0.74 -0.86,0.4 -2.73,1.06 -3.28,2 -0.55,0.94 0.19,1.46 0.91,1.82 a 33.7,33.7 0 0 0 4.28,1.85 c 1.65,0.57 2.09,-0.44 2.12,-1.76 A 69.57,69.57 0 0 0 40.3,43 c 1.92,-0.13 5.23,0.2 6.48,-1.67 1.25,-1.87 -0.17,-5.07 -0.91,-6.88 z"
     style="fill:#1d1d1b"
     id="path8" />
  <path
     d="m 27.51,29 c -0.11,-0.11 -0.3,-0.21 -1.57,-0.21 v 0 h -1 v -0.8 c 0,-0.95 -0.14,-1.22 -0.24,-1.35 v 0 a 0.74,0.74 0 0 0 -1,0 c -0.1,0.1 -0.17,0.26 -0.2,1.35 v 0.79 h -0.39 a 3.06,3.06 0 0 1 -0.59,0 4.08,4.08 0 0 1 -1.93,-0.27 c 0,0 0,-0.05 0,-0.26 0,-0.21 0,-0.18 0,-0.31 0,-0.13 0,-0.34 0.05,-0.61 0.05,-0.27 0,-0.51 0.06,-0.74 0.15,-1.77 0.29,-4.13 0.41,-7 L 21.21,16.96 21,16.84 c -0.32,-0.32 -0.53,-0.45 -0.72,-0.45 -0.45,0 -0.54,0.58 -0.56,0.78 -0.06,0.37 -0.13,1.16 -0.21,2.35 0,0.83 -0.09,1.5 -0.13,2 v 0 C 19.11,25 19,27.27 19,28.37 a 2,2 0 0 0 0.14,1 1.83,1.83 0 0 0 1.15,0.61 20.71,20.71 0 0 0 2.86,0.35 h 0.33 V 31 c 0,1.83 0.16,2.24 0.31,2.39 a 0.62,0.62 0 0 0 0.5,0.23 h 0.23 A 0.62,0.62 0 0 0 25,33 v -2.7 h 0.77 A 4.49,4.49 0 0 0 27.1,30.15 1,1 0 0 0 27.62,29.66 0.54,0.54 0 0 0 27.51,29 Z"
     style="fill:#1d1d1b;stroke:#1d1d1b;stroke-width:0.25px;stroke-miterlimit:10"
     id="path10" />
  <path
     d="m 29.259428,61.83819 h -0.49 c 0,-0.61 -0.09,-2.61 -0.14,-8.06 -0.05,-4.84 -0.08,-4.9 -0.13,-5 a 0.78,0.78 0 0 0 -0.72,-0.57 0.57,0.57 0 0 0 -0.41,0.21 c -0.16,0.15 -0.19,0.18 -0.19,6.29 0,7.11 0.08,7.44 0.11,7.56 a 1.4,1.4 0 0 0 0.6,1.07 c 0.08,0 0.12,0.06 1.12,0.12 h 0.72 a 1,1 0 0 0 0.55,-0.15 0.78,0.78 0 0 0 0.37,-0.6 0.74,0.74 0 0 0 -0.28,-0.57 1.65,1.65 0 0 0 -1.11,-0.3 z"
     style="fill:#1d1d1b"
     id="path12" />
  <path
     d="m 38.059428,49.89819 a 7.27,7.27 0 0 0 -0.82,-0.92 5.7,5.7 0 0 0 -1,-0.81 5.24,5.24 0 0 0 -2.61,-0.8 2.1,2.1 0 0 0 -0.57,0.06 0.7,0.7 0 0 0 -0.54,0.44 2.4,2.4 0 0 0 -0.09,0.8 c 0,0.64 0,1.87 0.12,3.66 0.12,1.79 0.12,2.92 0.13,3.34 a 51,51 0 0 0 0.37,7.1 c 0.07,0.29 0.33,0.65 1.11,0.68 h 0.17 a 5.15,5.15 0 0 0 5.17,-4.68 12.75,12.75 0 0 0 0.11,-2.1 20.34,20.34 0 0 0 -0.11,-2.52 10.17,10.17 0 0 0 -1.44,-4.25 z m -0.12,8.87 a 3.6,3.6 0 0 1 -3,3 2.27,2.27 0 0 1 -0.51,0.06 42.81,42.81 0 0 1 -0.26,-4.47 c 0,-0.15 0,-0.93 0,-2.33 0,-1.4 -0.07,-2.62 -0.1,-3.66 a 20.27,20.27 0 0 0 -0.16,-2.2 c 0,-0.14 0,-0.23 0,-0.31 a 2.77,2.77 0 0 1 0.57,0.13 v 0 a 4.08,4.08 0 0 1 2,1.3 8.5,8.5 0 0 1 1.56,4.76 c 0,0.56 0.05,1 0.05,1.45 a 9.87,9.87 0 0 1 -0.15,2.27 z"
     style="fill:#1d1d1b"
     id="path14" />
  <path
     d="m 14.456915,48.274552 a 4.76,4.76 0 0 0 -2.48,-1 h -0.16 a 0.88,0.88 0 0 0 -0.72,0.75 3.13,3.13 0 0 0 0,0.75 c 0,0.86 0,2.06 0.1,3.56 0,0.88 0.06,2.75 0.1,5.56 0.05,4.57 0.09,4.77 0.11,4.87 a 1,1 0 0 0 0.22,0.52 0.75,0.75 0 0 0 0.52,0.24 1.1,1.1 0 0 0 0.74,-0.36 l 0.11,-0.12 -0.05,-2.85 v -1.43 c 0,-1 0,-1.23 0,-1.21 a 2.05,2.05 0 0 1 0.54,-0.41 c 0.35,-0.24 0.73,-0.51 1.1,-0.82 a 6.43,6.43 0 0 0 1.39,-1.49 4.33,4.33 0 0 0 0.61,-1.62 3.77,3.77 0 0 0 0.06,-0.78 5,5 0 0 0 -0.58,-2.35 4.73,4.73 0 0 0 -1.61,-1.81 z m 0.57,4.26 a 3,3 0 0 1 -0.06,0.64 3.82,3.82 0 0 1 -1.35,2 c -0.27,0.22 -0.52,0.4 -0.72,0.54 0,-0.46 -0.07,-1.3 -0.14,-2.84 0,-0.4 0,-1 -0.07,-1.8 -0.07,-0.8 0,-1.31 -0.06,-1.47 v -0.59 h 0.15 a 3.56,3.56 0 0 1 2.1,2.23 4.1,4.1 0 0 1 0.15,1.29 z"
     style="fill:#1d1d1b"
     id="path16" />
  <path
     d="m 22.226915,62.144552 a 8.08,8.08 0 0 0 -1.21,-0.13 h -0.87 a 12.36,12.36 0 0 1 -0.09,-1.24 c 0,-0.95 -0.08,-1.84 -0.08,-2.63 a 8.2,8.2 0 0 1 0,-0.86 v -0.27 c 0.35,0 0.84,-0.11 1,-0.44 a 0.69,0.69 0 0 0 0.12,-0.41 c 0,-0.28 -0.15,-0.75 -1.15,-0.75 v 0 0 c 0,-0.06 0,-0.51 -0.07,-3.23 v -2.6 h 0.09 a 9.3,9.3 0 0 1 1,-0.05 c 1.38,0 1.68,-0.11 1.81,-0.34 a 0.67,0.67 0 0 0 -0.07,-1 c -0.15,-0.14 -0.39,-0.23 -1.17,-0.23 -0.42,0 -0.79,0 -1.11,0 h -0.36 -0.38 a 3.77,3.77 0 0 0 -0.57,0 l -0.14,0.05 a 0.74,0.74 0 0 0 -0.27,0.12 1.2,1.2 0 0 0 -0.18,0.2 v 0.09 a 8.94,8.94 0 0 0 -0.2,2.21 c 0,2.11 0,4.66 0.08,7.57 0.09,4.51 0.17,4.68 0.22,4.8 a 0.77,0.77 0 0 0 0.61,0.51 10.87,10.87 0 0 0 1.5,0 v 0 h 1.67 l 0.11,-0.19 c 0.2,-0.35 0.26,-0.55 0.21,-0.73 a 0.7,0.7 0 0 0 -0.5,-0.45 z"
     style="fill:#1d1d1b"
     id="path18" />
  <metadata
     id="metadata193">
    <rdf:RDF>
      <cc:Work
         rdf:about="">
        <dc:title>icon plastic type ldpe</dc:title>
      </cc:Work>
    </rdf:RDF>
  </metadata>
</svg>
