<?xml version="1.0" encoding="UTF-8" standalone="no"?>
<svg
   xmlns:dc="http://purl.org/dc/elements/1.1/"
   xmlns:cc="http://creativecommons.org/ns#"
   xmlns:rdf="http://www.w3.org/1999/02/22-rdf-syntax-ns#"
   xmlns:svg="http://www.w3.org/2000/svg"
   xmlns="http://www.w3.org/2000/svg"
   id="svg23"
   version="1.1"
   viewBox="0 0 44.76 65.06">
  <metadata
     id="metadata29">
    <rdf:RDF>
      <cc:Work
         rdf:about="">
        <dc:format>image/svg+xml</dc:format>
        <dc:type
           rdf:resource="http://purl.org/dc/dcmitype/StillImage" />
        <dc:title>icon plastic type other</dc:title>
      </cc:Work>
    </rdf:RDF>
  </metadata>
  <defs
     id="defs27" />
  <title
     id="title2">icon plastic type other</title>
  <g
     data-name="Calque 1"
     id="Calque_1">
    <g
       id="g833">
      <path
         d="M37.2,19.15a10.13,10.13,0,0,0-.32-4c-.43-1.06-1.59-.81-2.76-.2a66,66,0,0,0-4.63-7.1A36.08,36.08,0,0,0,23.66,1.2c-2-1.57-4.48-1.77-6.07.43a25.87,25.87,0,0,0-2,4L13.3,10.25c-.62,1.29,1.3,2.42,1.93,1.13,1.16-2.41,2.3-4.82,3.48-7.21.47-1,1.05-2.29,2.35-1.93A6.84,6.84,0,0,1,23.84,4.5a63.27,63.27,0,0,1,8.4,11.65l-1,.79a.52.52,0,0,0-.21.41,1.29,1.29,0,0,0-.06.8c.26,1,1.75,1.75,2.54,2.29s2.17,1.87,3.06,1.44S37.17,19.83,37.2,19.15Z"
         style="fill:#1d1d1b"
         id="path4" />
      <path
         d="M44.69,37.08c-.42-2.93-2-5.82-3-8.56-.52-1.32-2.68-.74-2.16.6.89,2.27,1.91,4.54,2.65,6.87.67,2.11.62,4.66-2,5.09A41.93,41.93,0,0,1,34,41.3c-1.86,0-3.71,0-5.56-.17,0-.41.05-.83.05-1.24,0-.8-.1-1.44-1-1.52-1.25-.11-2.63.62-3.75,1.05-.82.31-2.46.62-2.78,1.61s.41,1.25,1,1.61q2,1.2,4.12,2.27c.63.32,1.42.72,1.94,0a2.87,2.87,0,0,0,.35-1.5q3.48.23,7,.13c2.21-.06,5,.27,7-.81S45,39.22,44.69,37.08Z"
         style="fill:#1d1d1b"
         id="path6" />
      <path
         d="M14.29,41.4a30.35,30.35,0,0,1-6.53.14c-1.48-.17-4.66-.62-5.41-2.11-.46-.89.57-2.53.91-3.37L4.7,32.47,6.8,27.2c.8.35,1.8.72,2.37.06s.47-2.39.44-3.29,0-2.79-.69-3.68a1,1,0,0,0-1-.45.64.64,0,0,0-.52.13,18.73,18.73,0,0,0-3,3.07c-.44.58-1.48,1.6-1.09,2.42a2.64,2.64,0,0,0,1.46,1Q3.36,29.83,2,33.22C1.41,34.69.73,36.16.23,37.66a3.39,3.39,0,0,0,.34,3.15c1.25,1.76,4,2.47,6,2.8a30,30,0,0,0,7.75,0C15.71,43.5,15.72,41.27,14.29,41.4Z"
         style="fill:#1d1d1b"
         id="path8" />
      <path
         d="M26.85,17.12a1.46,1.46,0,0,0-.86-.18l-.54,0-.95,0H23.31c-2.11.07-2.3.09-2.36.1l-.12,0a.72.72,0,0,0-.48.53.81.81,0,0,0,.21.74.36.36,0,0,0,.26.11l2.37,0,2.07,0c-.21.55-.87,2.05-2.75,6-1.29,2.69-2.27,4.84-2.92,6.4a8.75,8.75,0,0,0-.88,2.51c0,.81.54.9.77.9.57,0,.83-.78.92-1a15.25,15.25,0,0,1,.65-1.81c.65-1.57,1.14-2.7,1.45-3.35,1-2.05,2-4.15,2.93-6.24,1.64-3.72,1.67-4,1.68-4.14A.76.76,0,0,0,26.85,17.12Z"
         style="fill:#1d1d1b;stroke:#1d1d1b;stroke-miterlimit:10;stroke-width:0.25px"
         id="path10" />
      <path
         id="path869"
         style="font-style:normal;font-variant:normal;font-weight:normal;font-stretch:normal;font-size:21.8897686px;line-height:1.25;font-family:PreciousPlastic;-inkscape-font-specification:PreciousPlastic;letter-spacing:0px;word-spacing:0px;fill:#000000;fill-opacity:1;stroke:none;stroke-width:1.82733762"
         d="m 1.0043221,62.620124 q 0,-0.109449 0.02189,-0.284567 0.02189,-0.175119 0.065669,-0.394016 0.087559,-0.503465 0.3721261,-1.94819 0.284567,-1.444724 0.7661419,-3.830709 0.4596851,-2.320316 0.7223624,-3.655591 0.284567,-1.357166 0.3283465,-1.510394 0.087559,-0.372127 0.4815749,-0.678583 0.3940158,-0.328347 0.7880317,-0.328347 0.3064567,0 0.4815749,0.175118 0.1751181,0.175118 0.5034647,1.072599 0.3283465,0.89748 0.7004725,2.604882 0.087559,0.372126 0.1751182,0.744253 0.1094488,0.372126 0.2188977,0.809921 0.2626772,1.050709 0.5910237,2.320315 0.3502363,1.247717 0.7442522,2.823781 0.5253544,2.101417 0.5253544,2.473543 0,0.306457 -0.2188977,0.525355 -0.1970079,0.218898 -0.5034646,0.218898 -0.4596852,0 -0.7004726,-0.569134 Q 6.9583391,62.904691 6.5205437,61.591305 6.0827484,60.277918 5.6668428,58.023272 5.6230632,57.760595 5.5573939,57.563587 5.5136144,57.366579 5.4698348,57.27902 5.1414883,57.213351 3.7405431,57.213351 H 3.6092045 q -0.04378,0.175118 -0.087559,0.437795 -0.04378,0.262677 -0.1313386,0.656693 -0.087559,0.394016 -0.1751181,0.788032 -0.087559,0.394016 -0.1532284,0.809921 -0.043779,0.284567 -0.1313386,0.722363 -0.065669,0.415905 -0.1532284,0.853701 -0.065669,0.437795 -0.1751181,0.831811 -0.087559,0.394016 -0.197008,0.612913 -0.2188976,0.459686 -0.656693,0.459686 -0.3064568,0 -0.5253545,-0.218898 Q 1.0043221,62.92658 1.0043221,62.620124 Z m 2.9113392,-6.982837 h 0.6129135 q 0.1751181,0 0.3064568,0 0.1532283,0 0.2626772,0.02189 -0.02189,-0.06567 -0.04378,-0.131338 -0.02189,-0.06567 -0.043779,-0.153229 l -0.02189,-0.109449 Q 4.9663702,55.155713 4.9007009,54.958705 4.8569213,54.739807 4.7693623,54.45524 4.6599134,54.148783 4.6161339,53.864216 4.5723543,53.579649 4.4847953,53.273192 L 4.419126,53.010515 q -0.04378,0.175118 -0.087559,0.372126 -0.02189,0.197008 -0.065669,0.415906 -0.1532284,0.634803 -0.2407875,1.094488 -0.065669,0.459685 -0.1094492,0.744252 z" />
      <path
         id="path871"
         style="font-style:normal;font-variant:normal;font-weight:normal;font-stretch:normal;font-size:21.8897686px;line-height:1.25;font-family:PreciousPlastic;-inkscape-font-specification:PreciousPlastic;letter-spacing:0px;word-spacing:0px;fill:#000000;fill-opacity:1;stroke:none;stroke-width:1.82733762"
         d="m 10.044757,50.66831 v -0.04378 q 0.328347,-0.262677 0.612914,-0.262677 0.218898,0 0.350236,0.109449 0.131339,0.109449 0.197008,0.284567 0.08756,0.153228 0.109449,0.350236 0.04378,0.197008 0.06567,0.372126 0.04378,0.240788 0.06567,0.788032 0.02189,0.547244 0.06567,1.422835 0.04378,0.481575 0.06567,1.028819 0.02189,0.547244 0.06567,1.203937 0.109448,1.313387 0.197007,2.276536 0.109449,0.96315 0.284567,1.510394 0.08756,0.284567 0.218898,0.612914 0.153229,0.328346 0.350236,0.612913 0.197008,0.284567 0.459686,0.459686 0.262677,0.175118 0.591023,0.175118 0.350237,0 0.656693,-0.197008 0.306457,-0.218898 0.525355,-0.525355 0.240787,-0.328346 0.372126,-0.700472 0.153228,-0.372126 0.175118,-0.700473 0.02189,-0.262677 0.02189,-0.96315 0.02189,-0.722362 0.06567,-1.926299 0.06567,-2.276536 0.06567,-4.531182 0,-0.06567 0,-0.109449 0.02189,-0.06567 0.02189,-0.109449 v -0.131339 q -0.08756,-0.08756 -0.08756,-0.350236 0,-0.284567 0.175118,-0.481575 0.175118,-0.218898 0.459685,-0.262677 0.394016,0 0.569134,0.153228 0.175119,0.131339 0.306457,0.459685 0.131339,0.328347 0.131339,3.195907 0,5.034646 -0.262677,5.954017 -0.153229,0.525354 -0.437796,1.028819 -0.284567,0.503465 -0.700472,0.89748 -0.394016,0.394016 -0.897481,0.634804 -0.503465,0.218897 -1.094488,0.218897 -1.160158,0 -1.860631,-0.656693 -0.700472,-0.678583 -1.094488,-1.641732 -0.372126,-0.96315 -0.525355,-2.035749 -0.131338,-1.094488 -0.175118,-1.9263 0,-0.131338 -0.02189,-0.569133 -0.02189,-0.437796 -0.06567,-0.98504 l -0.02189,-0.394016 q -0.02189,-0.284567 -0.04378,-0.547244 0,-0.262677 -0.02189,-0.481575 L 9.9572,53.316972 q -0.02189,-0.612914 -0.065669,-1.094488 -0.02189,-0.503465 -0.02189,-0.788032 0,-0.459685 0.175118,-0.766142 z" />
      <path
         id="path873"
         style="font-style:normal;font-variant:normal;font-weight:normal;font-stretch:normal;font-size:21.8897686px;line-height:1.25;font-family:PreciousPlastic;-inkscape-font-specification:PreciousPlastic;letter-spacing:0px;word-spacing:0px;fill:#000000;fill-opacity:1;stroke:none;stroke-width:1.82733762"
         d="m 18.603626,50.64642 q 0,-0.569134 0.525354,-0.700472 0.197008,-0.04378 1.116378,-0.02189 0.91937,0 2.364095,-0.131339 0.175118,-0.02189 0.394016,-0.02189 0.240787,0 0.437795,0 h 0.437796 q 0.415905,0 0.744252,0.109449 0.350236,0.109449 0.350236,0.612914 v 0.06567 q 0,0.197008 -0.153228,0.372126 -0.153229,0.175118 -0.350236,0.284567 -0.08756,0.04378 -0.350237,0.08756 -0.240787,0.02189 -0.525354,0.04378 -0.284567,0 -0.547244,0.02189 -0.262678,0 -0.394016,0 h -0.131339 v 5.516221 q 0,2.88945 -0.06567,4.531182 -0.04378,1.619843 -0.153229,1.794961 -0.06567,0.109449 -0.197007,0.131339 -0.131339,0.02189 -0.350237,0.02189 -0.131338,0 -0.284567,0 -0.131338,-0.02189 -0.240787,-0.109449 -0.175118,-0.197008 -0.240788,-0.415906 -0.06567,-0.240787 -0.06567,-0.525354 0,-0.306457 0.02189,-0.678583 0.02189,-0.394016 0.02189,-0.91937 0,-0.744252 0,-1.444725 0.02189,-0.722362 0.02189,-1.444725 -0.02189,-0.700472 -0.02189,-1.379055 0.02189,-0.678583 0.02189,-1.357166 l 0.02189,-3.677481 h -0.612913 q -0.547245,0 -0.897481,-0.02189 -0.328346,-0.02189 -0.481575,-0.109448 -0.415905,-0.218898 -0.415905,-0.634804 z" />
      <path
         id="path875"
         style="font-style:normal;font-variant:normal;font-weight:normal;font-stretch:normal;font-size:21.8897686px;line-height:1.25;font-family:PreciousPlastic;-inkscape-font-specification:PreciousPlastic;letter-spacing:0px;word-spacing:0px;fill:#000000;fill-opacity:1;stroke:none;stroke-width:1.82733762"
         d="m 26.30882,59.467997 v -1.838741 q 0,-0.394015 0,-0.700472 0.02189,-0.328347 0.02189,-0.569134 0.06567,-2.232757 0.06567,-4.684411 0.02189,-0.831811 0.06567,-1.400945 0.04378,-0.591024 0.109449,-0.91937 L 26.46205,49.201695 26.637168,49.026577 Q 26.899843,48.7639 27.25008,48.7639 q 0.328346,0 0.678582,0.131339 0.372126,0.109449 0.722363,0.306456 0.350236,0.197008 0.656693,0.437796 0.306457,0.240787 0.503465,0.459685 0.8537,0.94126 1.138267,1.86063 0.284567,0.919371 0.284567,2.123308 v 0.240787 q 0,0.372126 -0.175118,0.809922 -0.153228,0.437795 -0.415905,0.853701 -0.262678,0.415905 -0.591024,0.744252 -0.328347,0.328346 -0.656693,0.503465 l 0.04378,0.04378 q 0.02189,0 0.02189,0.02189 0,0 0.02189,0 l 0.02189,0.02189 q 0.569134,0.437795 1.094488,1.379055 0.109449,0.197008 0.328347,0.722362 0.218897,0.525355 0.437795,1.116379 0.218898,0.591023 0.372126,1.138268 0.175118,0.525354 0.175118,0.744252 0,0.306456 -0.240787,0.569134 -0.218898,0.240787 -0.525355,0.240787 h -0.08756 q -0.06567,0 -0.153228,-0.04378 -0.06567,-0.04378 -0.175118,-0.08756 v 0.02189 q -0.02189,-0.02189 -0.04378,-0.04378 0,-0.02189 -0.02189,-0.04378 -0.06567,-0.02189 -0.109448,-0.06567 l 0.02189,-0.04378 Q 30.270869,62.445003 29.942522,61.350515 29.811184,60.91272 29.636065,60.431145 29.460947,59.92768 29.19827,59.467995 28.957483,59.00831 28.629136,58.636184 28.322679,58.242168 27.906774,58.02327 v 0.481575 q 0,0.394016 -0.02189,0.831811 0,0.415906 0.04378,0.853701 0.02189,0.284567 0.02189,0.612914 0,0.328346 0,0.656693 v 0.678583 q 0,0.306456 -0.02189,0.525354 0,0.218898 -0.02189,0.328347 -0.04378,0.240787 -0.262678,0.350236 -0.197008,0.08756 -0.415905,0.08756 -0.437796,0 -0.591024,-0.218898 -0.131339,-0.240787 -0.218898,-0.612913 -0.02189,-0.08756 -0.02189,-0.240788 0,-0.153228 0,-0.372126 0,-0.459685 -0.06567,-1.182047 -0.02189,-0.240788 -0.02189,-0.569134 0,-0.328347 0,-0.766142 z m 1.641732,-3.655591 v 0.197008 h 0.04378 l 0.08756,-0.04378 q 0.240787,-0.109449 0.415905,-0.153228 0.175119,-0.04378 0.218898,-0.08756 0.109449,-0.08756 0.262677,-0.262678 0.153229,-0.175118 0.328347,-0.415905 0.240787,-0.306457 0.284567,-0.481575 0.04378,-0.197008 0.04378,-0.656693 0,-1.116378 -0.372126,-1.88252 -0.350236,-0.766142 -1.269606,-1.335276 v 0.218897 q 0,0.394016 -0.02189,0.853701 0,0.437796 0,0.94126 0,0.678583 -0.02189,1.444725 0,0.744252 0,1.663623 z" />
      <path
         id="path877"
         style="font-style:normal;font-variant:normal;font-weight:normal;font-stretch:normal;font-size:21.8897686px;line-height:1.25;font-family:PreciousPlastic;-inkscape-font-specification:PreciousPlastic;letter-spacing:0px;word-spacing:0px;fill:#000000;fill-opacity:1;stroke:none;stroke-width:1.82733762"
         d="m 33.225987,51.806578 q 0,-1.773071 0.08756,-1.948189 0.240788,-0.372127 0.612914,-0.415906 0.372126,-0.06567 1.028819,-0.06567 h 0.153228 q 0.131339,-0.02189 0.284567,-0.02189 0.153229,0 0.328347,0 h 0.350236 q 0.240788,0 0.481575,0.02189 0.240787,0 0.415906,0.08756 0.197008,0.08756 0.306456,0.262677 0.131339,0.175118 0.131339,0.481575 h 0.04378 q -0.153229,0.262677 -0.437796,0.415905 -0.284567,0.153229 -0.612913,0.218898 -0.328347,0.06567 -0.678583,0.08756 -0.328347,0 -0.612914,0 -0.08756,0 -0.175118,0.02189 -0.08756,0 -0.175118,0 l 0.02189,2.167087 q 0.02189,0.91937 0.04378,1.576063 0.02189,0.634804 0.02189,0.96315 v 0.197008 q 1.050709,0.02189 1.050709,0.766142 0,0.459685 -0.328347,0.656693 -0.306456,0.175118 -0.678582,0.197008 v 0.350236 q -0.02189,0.109449 -0.02189,0.240788 0,0.109449 0,0.284567 0,0.525354 0,1.094488 0.02189,0.547244 0.06567,1.182048 0.02189,0.240787 0,0.459685 0,0.218898 0.04378,0.350236 0.02189,0.06567 0.02189,0.197008 0.109449,0.02189 0.262678,0.04378 0.175118,0 0.415905,0 1.00693,0 1.313386,0.131338 0.328347,0.131339 0.328347,0.569134 v 0.04378 q 0,0.240787 -0.328347,0.831811 l -1.532283,-0.02189 H 35.26174 q -0.591024,0 -0.897481,0 -0.306457,-0.02189 -0.481575,-0.06567 -0.153228,-0.04378 -0.218897,-0.153229 -0.06567,-0.131338 -0.153229,-0.328346 -0.04378,-0.109449 -0.08756,-0.875591 -0.02189,-0.766142 -0.06567,-1.86063 -0.02189,-1.116378 -0.06567,-2.407875 -0.02189,-1.291496 -0.04378,-2.451654 0,-1.182047 -0.02189,-2.079528 0,-0.89748 0,-1.203937 z" />
      <path
         id="path879"
         style="font-style:normal;font-variant:normal;font-weight:normal;font-stretch:normal;font-size:21.8897686px;line-height:1.25;font-family:PreciousPlastic;-inkscape-font-specification:PreciousPlastic;letter-spacing:0px;word-spacing:0px;fill:#000000;fill-opacity:1;stroke:none;stroke-width:1.82733762"
         d="m 38.742197,62.576344 q 0,-0.394016 0.262677,-0.591024 0.284567,-0.218897 1.510394,-0.481575 0.98504,-0.218897 1.510394,-0.963149 0.525355,-0.744253 0.525355,-1.685513 0,-0.591023 -0.08756,-1.028819 -0.08756,-0.437795 -0.262678,-0.788031 -0.175118,-0.372126 -0.481575,-0.722363 -0.284567,-0.350236 -0.678582,-0.744252 -0.328347,-0.328346 -0.591024,-0.569134 -0.240788,-0.240787 -0.394016,-0.394016 -0.503465,-0.503464 -0.875591,-1.094488 -0.372126,-0.612914 -0.372126,-1.335276 0,-0.547244 0.240788,-1.094488 0.240787,-0.547245 0.634803,-0.98504 0.394016,-0.459685 0.91937,-0.722362 0.525355,-0.284567 1.072599,-0.284567 0.744252,0 0.744252,0.700472 0,0.350237 -0.131339,0.459685 -0.109448,0.109449 -0.634803,0.306457 -0.569134,0.218898 -0.94126,0.634803 -0.372126,0.394016 -0.372126,1.02882 0,0.153228 0.04378,0.306456 0.04378,0.153229 0.08756,0.262678 0,0.02189 0.197008,0.240787 0.218897,0.218898 0.481574,0.481575 0.262678,0.262677 0.525355,0.503465 0.262677,0.240787 0.350236,0.350236 l 0.284567,0.262677 q 0.328347,0.306457 0.547244,0.525355 0.218898,0.218897 0.284567,0.328346 0.415906,0.744252 0.700473,1.554174 0.306457,0.809921 0.306457,1.86063 0,1.138268 -0.634804,2.188977 -0.612913,1.028819 -1.597953,1.597953 -0.153228,0.06567 -0.481575,0.175118 -0.328346,0.109449 -0.700472,0.218898 -0.350236,0.08756 -0.700473,0.175118 -0.350236,0.06567 -0.547244,0.06567 -0.744252,0 -0.744252,-0.744253 z" />
    </g>
  </g>
</svg>
